<svg xmlns="http://www.w3.org/2000/svg" xmlns:xlink="http://www.w3.org/1999/xlink" viewBox="0 0 2420.86 1552.79"><defs><style>.cls-1,.cls-30,.cls-31,.cls-32,.cls-33{fill:none;}.cls-2{isolation:isolate;}.cls-3{fill:#352063;stroke:#231f20;stroke-miterlimit:10;}.cls-4{fill:url(#radial-gradient);}.cls-5{clip-path:url(#clip-path);}.cls-6{opacity:0.29;}.cls-10,.cls-11,.cls-12,.cls-13,.cls-15,.cls-16,.cls-17,.cls-18,.cls-19,.cls-20,.cls-22,.cls-23,.cls-24,.cls-25,.cls-26,.cls-27,.cls-7,.cls-8,.cls-9{mix-blend-mode:multiply;}.cls-7{fill:url(#radial-gradient-2);}.cls-8{fill:url(#radial-gradient-3);}.cls-9{fill:url(#radial-gradient-4);}.cls-10{fill:url(#radial-gradient-5);}.cls-11{fill:url(#radial-gradient-6);}.cls-12{fill:url(#radial-gradient-7);}.cls-13{fill:url(#radial-gradient-8);}.cls-14{fill:url(#radial-gradient-9);}.cls-15{fill:url(#radial-gradient-10);}.cls-16{fill:url(#radial-gradient-11);}.cls-17{fill:url(#radial-gradient-12);}.cls-18{fill:url(#radial-gradient-13);}.cls-19{fill:url(#radial-gradient-14);}.cls-20{fill:url(#radial-gradient-15);}.cls-21{fill:url(#radial-gradient-16);}.cls-22{fill:url(#radial-gradient-17);}.cls-23{fill:url(#radial-gradient-18);}.cls-24{fill:url(#radial-gradient-19);}.cls-25{fill:url(#radial-gradient-20);}.cls-26{fill:url(#radial-gradient-21);}.cls-27{fill:url(#radial-gradient-22);}.cls-28{fill:url(#radial-gradient-23);}.cls-29{clip-path:url(#clip-path-2);}.cls-30,.cls-31,.cls-32,.cls-33{stroke-linecap:round;stroke-linejoin:round;stroke-width:1.98px;}.cls-30{stroke:url(#linear-gradient);}.cls-31{stroke:url(#linear-gradient-2);}.cls-32{stroke:url(#linear-gradient-3);}.cls-33{stroke:url(#linear-gradient-4);}</style><radialGradient id="radial-gradient" cx="1146.36" cy="1061.5" r="568.31" gradientUnits="userSpaceOnUse"><stop offset="0" stop-color="#3c1775"/><stop offset="1" stop-color="#0d094c"/></radialGradient><clipPath id="clip-path"><rect class="cls-1" x="342.86" width="1606.17" height="1080"/></clipPath><radialGradient id="radial-gradient-2" cx="1503.97" cy="829.91" r="373.8" gradientTransform="matrix(1.12, -0.12, 0.11, 1.18, 211.43, -261.89)" gradientUnits="userSpaceOnUse"><stop offset="0" stop-color="#0d094c"/><stop offset="0.12" stop-color="#444174"/><stop offset="0.24" stop-color="#757399"/><stop offset="0.36" stop-color="#9f9eb8"/><stop offset="0.49" stop-color="#c2c1d2"/><stop offset="0.61" stop-color="#dddce6"/><stop offset="0.74" stop-color="#f0f0f4"/><stop offset="0.87" stop-color="#fbfbfc"/><stop offset="1" stop-color="#fff"/></radialGradient><radialGradient id="radial-gradient-3" cx="1228.78" cy="890.35" r="250.15" xlink:href="#radial-gradient-2"/><radialGradient id="radial-gradient-4" cx="1120.21" cy="935.68" r="250.15" xlink:href="#radial-gradient-2"/><radialGradient id="radial-gradient-5" cx="845.44" cy="903.07" r="250.15" xlink:href="#radial-gradient-2"/><radialGradient id="radial-gradient-6" cx="576.62" cy="903.06" r="350.36" xlink:href="#radial-gradient-2"/><radialGradient id="radial-gradient-7" cx="403.55" cy="894.5" r="350.36" xlink:href="#radial-gradient-2"/><radialGradient id="radial-gradient-8" cx="305.41" cy="903.06" r="350.36" xlink:href="#radial-gradient-2"/><radialGradient id="radial-gradient-9" cx="541.3" cy="385.67" r="1472.02" gradientTransform="matrix(1.12, -0.12, 0.11, 1.18, 211.43, -261.89)" xlink:href="#radial-gradient"/><radialGradient id="radial-gradient-10" cx="-4825.32" cy="664.57" r="373.8" gradientTransform="matrix(-1.13, 0, 0, 1.19, -4924.15, -19.15)" xlink:href="#radial-gradient-2"/><radialGradient id="radial-gradient-11" cx="-5100.51" cy="725.02" r="250.15" gradientTransform="matrix(-1.13, 0, 0, 1.19, -4924.15, -19.15)" xlink:href="#radial-gradient-2"/><radialGradient id="radial-gradient-12" cx="-5281.1" cy="737.74" r="250.15" gradientTransform="matrix(-1.13, 0, 0, 1.19, -4924.15, -19.15)" xlink:href="#radial-gradient-2"/><radialGradient id="radial-gradient-13" cx="-5483.85" cy="737.74" r="250.15" gradientTransform="matrix(-1.13, 0, 0, 1.19, -4924.15, -19.15)" xlink:href="#radial-gradient-2"/><radialGradient id="radial-gradient-14" cx="-5752.68" cy="737.74" r="350.36" gradientTransform="matrix(-1.13, 0, 0, 1.19, -4924.15, -19.15)" xlink:href="#radial-gradient-2"/><radialGradient id="radial-gradient-15" cx="-6023.88" cy="737.74" r="350.36" gradientTransform="matrix(-1.13, 0, 0, 1.19, -4924.15, -19.15)" xlink:href="#radial-gradient-2"/><radialGradient id="radial-gradient-16" cx="265.97" cy="378.45" r="1401.64" gradientTransform="translate(307.34 -19.15) scale(1.13 1.19)" xlink:href="#radial-gradient"/><radialGradient id="radial-gradient-17" cx="1288.34" cy="808.74" r="373.8" gradientTransform="translate(307.34 -19.15) scale(1.13 1.19)" xlink:href="#radial-gradient-2"/><radialGradient id="radial-gradient-18" cx="1013.16" cy="869.18" r="250.15" gradientTransform="translate(307.34 -19.15) scale(1.13 1.19)" xlink:href="#radial-gradient-2"/><radialGradient id="radial-gradient-19" cx="629.81" cy="881.91" r="250.15" gradientTransform="translate(307.34 -19.15) scale(1.13 1.19)" xlink:href="#radial-gradient-2"/><radialGradient id="radial-gradient-20" cx="360.99" cy="881.91" r="350.36" gradientTransform="translate(307.34 -19.15) scale(1.13 1.19)" xlink:href="#radial-gradient-2"/><radialGradient id="radial-gradient-21" cx="805.64" cy="975.17" r="350.36" gradientTransform="translate(307.34 -19.15) scale(1.13 1.19)" xlink:href="#radial-gradient-2"/><radialGradient id="radial-gradient-22" cx="89.78" cy="881.91" r="350.36" gradientTransform="translate(307.34 -19.15) scale(1.13 1.19)" xlink:href="#radial-gradient-2"/><radialGradient id="radial-gradient-23" cx="325.67" cy="364.5" r="1472.03" gradientTransform="translate(307.34 -19.15) scale(1.13 1.19)" xlink:href="#radial-gradient"/><clipPath id="clip-path-2"><rect class="cls-1" x="342.7" width="1606.33" height="1080"/></clipPath><linearGradient id="linear-gradient" y1="673.98" x2="2042.78" y2="673.98" gradientUnits="userSpaceOnUse"><stop offset="0" stop-color="#e10a99"/><stop offset="1" stop-color="#0d094c" stop-opacity="0"/></linearGradient><linearGradient id="linear-gradient-2" x1="87.43" y1="769.68" x2="2264.91" y2="769.68" gradientUnits="userSpaceOnUse"><stop offset="0" stop-color="#0d094c" stop-opacity="0"/><stop offset="1" stop-color="#e10a99"/></linearGradient><linearGradient id="linear-gradient-3" x1="204.64" y1="464.14" x2="2152.14" y2="464.14" xlink:href="#linear-gradient-2"/><linearGradient id="linear-gradient-4" x1="231.11" y1="985.38" x2="2020.13" y2="985.38" xlink:href="#linear-gradient"/></defs><title>Asset 4</title><g class="cls-2"><g id="Layer_2" data-name="Layer 2"><g id="Layer_1-2" data-name="Layer 1"><rect class="cls-3" x="342.86" y="949" width="1606" height="131"/><rect class="cls-4" x="342.86" y="1043" width="1607" height="37"/><g class="cls-5"><g class="cls-6"><ellipse class="cls-7" cx="1992.97" cy="542.96" rx="422.02" ry="443.29"/><ellipse class="cls-8" cx="1690.46" cy="646.24" rx="282.42" ry="296.65"/><ellipse class="cls-9" cx="1573.48" cy="712.34" rx="282.42" ry="296.65"/><ellipse class="cls-10" cx="1261.15" cy="705.75" rx="282.42" ry="296.65"/><ellipse class="cls-11" cx="959.11" cy="736.96" rx="395.56" ry="415.49"/><ellipse class="cls-12" cx="763.71" cy="746.95" rx="395.56" ry="415.49"/><ellipse class="cls-13" cx="654.39" cy="768.44" rx="395.56" ry="415.49"/><path class="cls-14" d="M428.84,860.79c-7.84-71.14,9.31-142.72,45.83-203.19,60-99.33,191.62-245.82,423.21-175,338.1,103.43,619.81,163.42,846.61-93.15s501.22-274.31,599.79-88.88,172.57,628.89-246.14,647.51-662.61-215.86-941.33-12.69C907.13,1117.45,462.62,1167.47,428.84,860.79Z"/></g><ellipse class="cls-15" cx="523.56" cy="768.96" rx="422.02" ry="443.29"/><ellipse class="cls-16" cx="834.24" cy="840.65" rx="282.42" ry="296.65"/><ellipse class="cls-17" cx="1038.14" cy="855.74" rx="282.42" ry="296.65"/><ellipse class="cls-18" cx="1267.04" cy="855.74" rx="282.42" ry="296.65"/><ellipse class="cls-19" cx="1570.53" cy="855.74" rx="395.56" ry="415.49"/><ellipse class="cls-20" cx="1876.72" cy="855.74" rx="395.56" ry="415.49"/><path class="cls-21" d="M2109.8,924.46c1.17-71.6-22.57-141.08-64.54-197.51-68.94-92.68-213.61-224.93-437.49-130.61-326.84,137.71-601.6,226.36-851.22-5.66S232.17,369.23,151.35,563.9,38.22,1207.52,456.65,1183,1096,900,1392.27,1073.59C1657.72,1229.05,2104.75,1233.14,2109.8,924.46Z"/><ellipse class="cls-22" cx="1761.85" cy="939.93" rx="422.02" ry="443.29"/><ellipse class="cls-23" cx="1451.18" cy="1011.61" rx="282.42" ry="296.65"/><ellipse class="cls-24" cx="1018.38" cy="1026.7" rx="282.42" ry="296.65"/><ellipse class="cls-25" cx="714.89" cy="1026.7" rx="395.56" ry="415.49"/><ellipse class="cls-26" cx="1216.9" cy="1137.3" rx="395.56" ry="415.49"/><ellipse class="cls-27" cx="408.7" cy="1026.7" rx="395.56" ry="415.49"/><path class="cls-28" d="M175.62,1095.42c-1.17-71.6,22.57-141.07,64.54-197.51C309.1,805.23,453.77,673,677.65,767.3c326.84,137.71,601.6,226.37,851.22-5.65s524.38-221.46,605.19-26.79,113.14,643.62-305.29,619.1-639.31-283-935.62-109.41C627.7,1400,180.67,1404.1,175.62,1095.42Z"/></g><g class="cls-29"><path class="cls-30" d="M1,568s293.08-293,650-60.41c310.16,209.69,598.2,245.27,944.83,7.59s572.93,115.07,368.18,415"/><path class="cls-31" d="M2263.92,657.9c-220.44-49.07-406-154.45-675.38,58s-363.24,311.72-841,167.41S88.42,897.46,88.42,897.46"/><path class="cls-32" d="M205.63,585.27s118.27-51.56,274.13-19.43,315.77,155.9,617.91,167.93c439.63,18,749.95-635.18,1053.48-527.65"/><path class="cls-33" d="M2019.14,830.92s-197.66-115-357.46,93.87-394.1,296.65-659.09,218.27S629,837.47,232.1,952.54"/></g><rect class="cls-1" x="342.86" width="1606" height="780"/></g></g></g></svg>