<svg xmlns="http://www.w3.org/2000/svg" xmlns:xlink="http://www.w3.org/1999/xlink" viewBox="0 0 2704.22 1837.13"><defs><style>.cls-1,.cls-15,.cls-16,.cls-17,.cls-18{fill:none;}.cls-2{isolation:isolate;}.cls-3{fill:#352063;stroke:#231f20;stroke-miterlimit:10;}.cls-4{fill:url(#radial-gradient);}.cls-5{clip-path:url(#clip-path);}.cls-6{fill:url(#radial-gradient-2);}.cls-10,.cls-11,.cls-12,.cls-7,.cls-8,.cls-9{mix-blend-mode:multiply;}.cls-7{fill:url(#radial-gradient-3);}.cls-8{fill:url(#radial-gradient-4);}.cls-9{fill:url(#radial-gradient-5);}.cls-10{fill:url(#radial-gradient-6);}.cls-11{fill:url(#radial-gradient-7);}.cls-12{fill:url(#radial-gradient-8);}.cls-13{fill:url(#radial-gradient-9);}.cls-14{clip-path:url(#clip-path-2);}.cls-15,.cls-16,.cls-17,.cls-18{stroke-linecap:round;stroke-linejoin:round;stroke-width:1.98px;}.cls-15{stroke:url(#linear-gradient);}.cls-16{stroke:url(#linear-gradient-2);}.cls-17{stroke:url(#linear-gradient-3);}.cls-18{stroke:url(#linear-gradient-4);}</style><radialGradient id="radial-gradient" cx="1368.72" cy="1267.57" r="678.64" gradientUnits="userSpaceOnUse"><stop offset="0" stop-color="#3c1775"/><stop offset="1" stop-color="#0d094c"/></radialGradient><clipPath id="clip-path"><rect class="cls-1" x="409.23" width="1917.97" height="1289.66"/></clipPath><radialGradient id="radial-gradient-2" cx="395.68" cy="430.01" r="1673.74" gradientTransform="translate(278.66 3.12) scale(1.13 1.19)" xlink:href="#radial-gradient"/><radialGradient id="radial-gradient-3" cx="1620.33" cy="1100.42" r="446.37" gradientTransform="translate(278.66 8.95) scale(1.13 1.05)" gradientUnits="userSpaceOnUse"><stop offset="0" stop-color="#0d094c"/><stop offset="0.12" stop-color="#444174"/><stop offset="0.24" stop-color="#757399"/><stop offset="0.36" stop-color="#9f9eb8"/><stop offset="0.49" stop-color="#c2c1d2"/><stop offset="0.61" stop-color="#dddce6"/><stop offset="0.74" stop-color="#f0f0f4"/><stop offset="0.87" stop-color="#fbfbfc"/><stop offset="1" stop-color="#fff"/></radialGradient><radialGradient id="radial-gradient-4" cx="1287.92" cy="1016.01" r="298.72" gradientTransform="translate(278.66 3.12) scale(1.13 1.19)" xlink:href="#radial-gradient-3"/><radialGradient id="radial-gradient-5" cx="830.15" cy="1031.21" r="298.72" gradientTransform="translate(278.66 3.12) scale(1.13 1.19)" xlink:href="#radial-gradient-3"/><radialGradient id="radial-gradient-6" cx="487.13" cy="1060.24" r="418.38" gradientTransform="translate(295.62 6.41) scale(1.06 1.15)" xlink:href="#radial-gradient-3"/><radialGradient id="radial-gradient-7" cx="1042.15" cy="1169.46" r="418.38" gradientTransform="translate(278.66 9.61) scale(1.13 1.15)" xlink:href="#radial-gradient-3"/><radialGradient id="radial-gradient-8" cx="185.29" cy="1031.21" r="418.38" gradientTransform="translate(278.66 3.12) scale(1.13 1.19)" xlink:href="#radial-gradient-3"/><radialGradient id="radial-gradient-9" cx="466.97" cy="413.35" r="1757.79" gradientTransform="translate(278.66 3.12) scale(1.13 1.19)" xlink:href="#radial-gradient"/><clipPath id="clip-path-2"><rect class="cls-1" x="409.03" width="1918.17" height="1289.66"/></clipPath><linearGradient id="linear-gradient" y1="804.82" x2="2438.96" y2="804.82" gradientUnits="userSpaceOnUse"><stop offset="0" stop-color="#e10a99"/><stop offset="1" stop-color="#0d094c" stop-opacity="0"/></linearGradient><linearGradient id="linear-gradient-2" x1="104.41" y1="919.1" x2="2704.22" y2="919.1" gradientUnits="userSpaceOnUse"><stop offset="0" stop-color="#0d094c" stop-opacity="0"/><stop offset="1" stop-color="#e10a99"/></linearGradient><linearGradient id="linear-gradient-3" x1="244.37" y1="554.25" x2="2569.55" y2="554.25" xlink:href="#linear-gradient-2"/><linearGradient id="linear-gradient-4" x1="275.98" y1="1176.67" x2="2411.91" y2="1176.67" xlink:href="#linear-gradient"/></defs><title>Asset 5</title><g class="cls-2"><g id="Layer_2" data-name="Layer 2"><g id="Layer_1-2" data-name="Layer 1"><rect class="cls-3" x="409.23" y="1133.23" width="1917.77" height="156.43"/><rect class="cls-4" x="409.23" y="1245.48" width="1918.97" height="44.18"/><g class="cls-5"><path class="cls-6" d="M2519.18,1103.92c1.4-85.5-26.95-168.46-77.07-235.85-82.32-110.67-255.08-268.59-522.41-156-390.29,164.44-718.39,270.31-1016.47-6.76s-626.18-264.44-722.69-32S45.44,1441.93,545.1,1412.65,1308.53,1074.77,1662.36,1282C1979.34,1467.65,2513.16,1472.53,2519.18,1103.92Z"/><ellipse class="cls-7" cx="2107.99" cy="1164.21" rx="503.95" ry="468.62"/><ellipse class="cls-8" cx="1732.7" cy="1207.99" rx="337.24" ry="354.24"/><ellipse class="cls-9" cx="1215.89" cy="1226.01" rx="337.24" ry="354.24"/><ellipse class="cls-10" cx="810.12" cy="1226.01" rx="441.88" ry="481.27"/><ellipse class="cls-11" cx="1455.23" cy="1355.59" rx="472.35" ry="481.53"/><ellipse class="cls-12" cx="487.85" cy="1226.01" rx="472.35" ry="496.15"/><path class="cls-13" d="M209.52,1308.08c-1.39-85.51,26.95-168.47,77.07-235.85,82.32-110.68,255.08-268.6,522.42-156,390.29,164.44,718.39,270.31,1016.47-6.76s626.18-264.44,722.68-32,135.1,768.57-364.56,739.28-763.42-337.88-1117.26-130.64C749.36,1671.8,215.55,1676.68,209.52,1308.08Z"/></g><g class="cls-14"><path class="cls-15" d="M1,678.23s350-349.88,776.23-72.14c370.36,250.4,714.32,292.89,1128.24,9.06s684.15,137.41,439.66,495.56"/><path class="cls-16" d="M2703.22,785.61C2440,727,2218.45,601.19,1896.74,854.88S1463,1227.11,892.49,1054.79s-787.09,16.9-787.09,16.9"/><path class="cls-17" d="M245.36,698.89s141.22-61.57,327.35-23.2,377.06,186.16,737.86,200.52c525,21.46,895.54-758.48,1258-630.08"/><path class="cls-18" d="M2410.92,992.22s-236-137.27-426.84,112.1S1513.47,1458.56,1197,1365,750.94,1000.05,277,1137.45"/></g><rect class="cls-1" x="409.23" width="1917.77" height="931.42"/></g></g></g></svg>